<svg width="126" height="45" viewBox="0 0 126 45" fill="none" xmlns="http://www.w3.org/2000/svg">
<path d="M1 3.94345V44H35.3562M1 3.94345H35.3562M1 3.94345L5.22222 1H39M35.3562 44V3.94345M35.3562 44L39 41.0445V1M35.3562 3.94345L39 1" stroke="black"/>
<path d="M18.5 23L22.3971 32.75H14.6029L18.5 23Z" fill="url(#paint0_linear_61_427)"/>
<circle cx="18.5" cy="20.5" r="5.5" fill="url(#paint1_linear_61_427)"/>
<path d="M53.6628 20.1207C52.858 20.1207 52.0884 20 51.354 19.7586C50.6197 19.5071 50.0412 19.1851 49.6187 18.7928L50.177 17.6158C50.5794 17.9679 51.0925 18.2596 51.7162 18.491C52.3399 18.7224 52.9888 18.8381 53.6628 18.8381C54.2765 18.8381 54.7744 18.7676 55.1567 18.6268C55.539 18.486 55.8207 18.2948 56.0018 18.0534C56.1828 17.8019 56.2734 17.5202 56.2734 17.2083C56.2734 16.8462 56.1527 16.5544 55.9112 16.3331C55.6798 16.1118 55.373 15.9358 54.9907 15.805C54.6185 15.6641 54.2061 15.5434 53.7534 15.4428C53.3007 15.3422 52.8429 15.2265 52.3802 15.0957C51.9275 14.9549 51.51 14.7789 51.1277 14.5676C50.7555 14.3563 50.4537 14.0747 50.2223 13.7226C49.9909 13.3604 49.8752 12.8976 49.8752 12.3343C49.8752 11.791 50.0161 11.2931 50.2977 10.8404C50.5895 10.3776 51.0321 10.0104 51.6257 9.7388C52.2293 9.45712 52.9938 9.31628 53.9193 9.31628C54.533 9.31628 55.1416 9.39676 55.7452 9.55772C56.3488 9.71868 56.872 9.95006 57.3146 10.2519L56.8166 11.4591C56.3639 11.1573 55.8861 10.941 55.3831 10.8102C54.8801 10.6693 54.3922 10.5989 53.9193 10.5989C53.3258 10.5989 52.8379 10.6744 52.4556 10.8253C52.0733 10.9762 51.7917 11.1774 51.6106 11.4289C51.4396 11.6804 51.354 11.9621 51.354 12.2739C51.354 12.6461 51.4697 12.9429 51.7011 13.1642C51.9426 13.3855 52.2494 13.5616 52.6216 13.6924C53.0039 13.8232 53.4214 13.9439 53.8741 14.0545C54.3268 14.1551 54.7795 14.2708 55.2322 14.4016C55.6949 14.5324 56.1124 14.7034 56.4846 14.9147C56.8669 15.1259 57.1738 15.4076 57.4051 15.7597C57.6365 16.1118 57.7522 16.5645 57.7522 17.1178C57.7522 17.651 57.6063 18.149 57.3146 18.6117C57.0229 19.0644 56.5702 19.4316 55.9565 19.7133C55.3529 19.9849 54.5883 20.1207 53.6628 20.1207ZM62.1333 20V10.7498H58.5117V9.437H67.2488V10.7498H63.6272V20H62.1333ZM73.7397 20.1207C72.9349 20.1207 72.1854 19.9849 71.4913 19.7133C70.8072 19.4417 70.2137 19.0644 69.7107 18.5815C69.2077 18.0886 68.8153 17.5152 68.5337 16.8613C68.252 16.2074 68.1111 15.4931 68.1111 14.7185C68.1111 13.9439 68.252 13.2296 68.5337 12.5757C68.8153 11.9218 69.2077 11.3534 69.7107 10.8705C70.2137 10.3776 70.8072 9.99533 71.4913 9.72371C72.1754 9.45209 72.9248 9.31628 73.7397 9.31628C74.5445 9.31628 75.2839 9.45209 75.9579 9.72371C76.642 9.98527 77.2356 10.3625 77.7386 10.8555C78.2516 11.3383 78.644 11.9067 78.9156 12.5606C79.1973 13.2145 79.3381 13.9338 79.3381 14.7185C79.3381 15.5032 79.1973 16.2225 78.9156 16.8764C78.644 17.5303 78.2516 18.1037 77.7386 18.5966C77.2356 19.0795 76.642 19.4568 75.9579 19.7284C75.2839 19.9899 74.5445 20.1207 73.7397 20.1207ZM73.7397 18.7777C74.3232 18.7777 74.8614 18.6771 75.3543 18.4759C75.8573 18.2747 76.2899 17.993 76.6521 17.6309C77.0243 17.2586 77.311 16.8261 77.5122 16.3331C77.7235 15.8402 77.8291 15.302 77.8291 14.7185C77.8291 14.135 77.7235 13.5968 77.5122 13.1039C77.311 12.6109 77.0243 12.1834 76.6521 11.8212C76.2899 11.449 75.8573 11.1623 75.3543 10.9611C74.8614 10.7599 74.3232 10.6593 73.7397 10.6593C73.1462 10.6593 72.5979 10.7599 72.0949 10.9611C71.602 11.1623 71.1694 11.449 70.7972 11.8212C70.4249 12.1834 70.1332 12.6109 69.9219 13.1039C69.7207 13.5968 69.6201 14.135 69.6201 14.7185C69.6201 15.302 69.7207 15.8402 69.9219 16.3331C70.1332 16.8261 70.4249 17.2586 70.7972 17.6309C71.1694 17.993 71.602 18.2747 72.0949 18.4759C72.5979 18.6771 73.1462 18.7777 73.7397 18.7777ZM86.594 20.1207C85.7892 20.1207 85.0448 19.9899 84.3607 19.7284C83.6867 19.4568 83.0982 19.0795 82.5952 18.5966C82.1022 18.1037 81.7149 17.5303 81.4332 16.8764C81.1516 16.2225 81.0107 15.5032 81.0107 14.7185C81.0107 13.9338 81.1516 13.2145 81.4332 12.5606C81.7149 11.9067 82.1073 11.3383 82.6103 10.8555C83.1133 10.3625 83.7018 9.98527 84.3758 9.72371C85.0599 9.45209 85.8043 9.31628 86.6091 9.31628C87.424 9.31628 88.1734 9.45712 88.8575 9.7388C89.5517 10.0104 90.1402 10.4178 90.6231 10.9611L89.6422 11.9118C89.2398 11.4892 88.7871 11.1774 88.2841 10.9762C87.7811 10.7649 87.2429 10.6593 86.6695 10.6593C86.0759 10.6593 85.5226 10.7599 85.0096 10.9611C84.5066 11.1623 84.069 11.444 83.6967 11.8061C83.3245 12.1683 83.0328 12.6009 82.8215 13.1039C82.6203 13.5968 82.5197 14.135 82.5197 14.7185C82.5197 15.302 82.6203 15.8452 82.8215 16.3482C83.0328 16.8412 83.3245 17.2687 83.6967 17.6309C84.069 17.993 84.5066 18.2747 85.0096 18.4759C85.5226 18.6771 86.0759 18.7777 86.6695 18.7777C87.2429 18.7777 87.7811 18.6771 88.2841 18.4759C88.7871 18.2646 89.2398 17.9427 89.6422 17.5101L90.6231 18.4608C90.1402 19.0041 89.5517 19.4165 88.8575 19.6982C88.1734 19.9799 87.4189 20.1207 86.594 20.1207ZM94.33 17.4498L94.2546 15.6088L100.245 9.437H101.966L97.3329 14.3262L96.4879 15.2617L94.33 17.4498ZM93.0021 20V9.437H94.5111V20H93.0021ZM100.487 20L96.1559 14.9599L97.1669 13.8433L102.252 20H100.487Z" fill="black"/>
<path d="M50.5845 37V26.437H55.036C56.1627 26.437 57.1536 26.6583 58.0087 27.101C58.8739 27.5436 59.5429 28.1623 60.0157 28.957C60.4986 29.7518 60.74 30.6723 60.74 31.7185C60.74 32.7647 60.4986 33.6852 60.0157 34.48C59.5429 35.2747 58.8739 35.8934 58.0087 36.336C57.1536 36.7787 56.1627 37 55.036 37H50.5845ZM52.0935 35.6872H54.9455C55.8207 35.6872 56.5752 35.5212 57.209 35.1892C57.8528 34.8572 58.3508 34.3945 58.7029 33.8009C59.055 33.1973 59.231 32.5032 59.231 31.7185C59.231 30.9238 59.055 30.2296 58.7029 29.6361C58.3508 29.0425 57.8528 28.5798 57.209 28.2478C56.5752 27.9158 55.8207 27.7498 54.9455 27.7498H52.0935V35.6872ZM63.2777 37V26.437H64.7867V37H63.2777ZM66.576 37L71.3595 26.437H72.8534L77.652 37H76.0676L71.7971 27.282H72.4007L68.1302 37H66.576ZM68.6131 34.3592L69.0205 33.152H74.966L75.4036 34.3592H68.6131ZM79.4541 37V26.437H83.5737C84.4992 26.437 85.2889 26.5829 85.9428 26.8746C86.5967 27.1663 87.0997 27.5889 87.4518 28.1422C87.8039 28.6955 87.9799 29.3544 87.9799 30.119C87.9799 30.8835 87.8039 31.5424 87.4518 32.0957C87.0997 32.639 86.5967 33.0565 85.9428 33.3482C85.2889 33.64 84.4992 33.7858 83.5737 33.7858H80.284L80.9631 33.0917V37H79.4541ZM86.5162 37L83.8302 33.1671H85.4448L88.161 37H86.5162ZM80.9631 33.2426L80.284 32.5032H83.5284C84.4942 32.5032 85.2235 32.2969 85.7164 31.8845C86.2194 31.462 86.4709 30.8735 86.4709 30.119C86.4709 29.3645 86.2194 28.781 85.7164 28.3685C85.2235 27.9561 84.4942 27.7498 83.5284 27.7498H80.284L80.9631 26.9953V33.2426ZM93.0471 37V32.9559L93.3942 33.8915L88.8521 26.437H90.4667L94.2845 32.7295H93.4093L97.2421 26.437H98.7361L94.2091 33.8915L94.541 32.9559V37H93.0471Z" fill="black"/>
<defs>
<linearGradient id="paint0_linear_61_427" x1="13.1818" y1="24.8571" x2="19.4863" y2="36.4502" gradientUnits="userSpaceOnUse">
<stop stop-color="#4379E4"/>
<stop offset="1" stop-color="#332FE7"/>
</linearGradient>
<linearGradient id="paint1_linear_61_427" x1="12" y1="16.5714" x2="16.1913" y2="27.704" gradientUnits="userSpaceOnUse">
<stop stop-color="#4379E4"/>
<stop offset="1" stop-color="#332FE7"/>
</linearGradient>
</defs>
</svg>
