<svg width="200" height="176" viewBox="0 0 200 176" fill="none" xmlns="http://www.w3.org/2000/svg">
<path d="M100.655 24.8206C84.4905 24.8268 68.9625 31.1074 57.3579 42.333C45.7532 53.5587 38.9826 68.8484 38.4791 84.966C38.4613 85.5953 38.4526 86.2336 38.4526 86.8718C38.4526 99.1444 42.1007 111.141 48.9356 121.346C55.7706 131.55 65.4853 139.503 76.8513 144.2C88.2174 148.896 100.724 150.125 112.79 147.731C124.857 145.337 135.94 139.427 144.639 130.749C153.338 122.071 159.263 111.014 161.663 98.9774C164.063 86.9407 162.831 74.4642 158.123 63.1258C153.415 51.7875 145.442 42.0964 135.213 35.2781C124.984 28.4598 112.958 24.8206 100.655 24.8206ZM100.655 147.15C84.6346 147.134 69.2748 140.777 57.9465 129.477C46.6181 118.176 40.2465 102.854 40.2298 86.8718C40.2298 86.0474 40.2476 85.2319 40.2832 84.4252C40.7644 72.6176 44.7143 61.2115 51.6417 51.6253C58.569 42.0391 68.1683 34.6957 79.2459 30.5082C90.3234 26.3207 102.391 25.4738 113.947 28.073C125.503 30.6721 136.038 36.6025 144.243 45.1268C152.447 53.6511 157.959 64.3932 160.093 76.0174C162.226 87.6415 160.887 99.6349 156.243 110.506C151.598 121.377 143.853 130.647 133.97 137.162C124.087 143.677 112.501 147.151 100.655 147.15Z" fill="#272727"/>
<path d="M152.679 86.8717C152.679 100.636 147.198 113.836 137.442 123.569C127.685 133.301 114.453 138.769 100.655 138.769C86.8575 138.769 73.625 133.301 63.8686 123.569C54.1122 113.836 48.6311 100.636 48.6311 86.8717C48.6311 85.2268 48.7103 83.6083 48.8602 82.0074C50.1138 68.7236 56.448 56.4319 66.5475 47.6843C76.6469 38.9368 89.7356 34.4056 103.096 35.0316C116.456 35.6575 129.062 41.3926 138.295 51.046C147.528 60.6993 152.679 73.5292 152.679 86.8717Z" fill="#F1F3F8"/>
<path d="M116.71 90.2903C115.403 88.6506 113.683 87.3519 111.711 86.5143C109.278 85.5359 106.766 84.7484 104.199 84.1597V70.1542C108.145 70.7219 111.845 72.332 114.882 74.8023L117.861 68.7414C116.148 67.2847 114.181 66.1249 112.049 65.3142C109.686 64.4011 107.206 63.794 104.674 63.509V56.4103H97.7751V63.5787C95.1109 63.8643 92.5409 64.6878 90.236 65.9944C88.1538 67.1704 86.4009 68.8101 85.1273 70.7733C83.9119 72.6892 83.2821 74.8913 83.309 77.1308C83.1903 79.5576 83.927 81.9525 85.4017 83.9329C86.759 85.6476 88.5515 87.0042 90.6103 87.8747C93.0818 88.882 95.6374 89.69 98.2503 90.2903V103.712C93.5942 103.376 89.1577 101.687 85.5387 98.8715L82.5598 104.941C84.5833 106.538 86.8845 107.783 89.3587 108.621C92.0698 109.547 94.9022 110.111 97.7752 110.296V117.333H104.674V110.165C108.507 109.765 112.1 108.193 114.919 105.682C116.16 104.547 117.14 103.177 117.797 101.661C118.455 100.145 118.775 98.515 118.739 96.8745C118.853 94.525 118.139 92.2067 116.71 90.2903ZM98.2503 82.6771C96.5697 82.1908 95.0071 81.3904 93.6535 80.3225C93.1172 79.8672 92.6933 79.3042 92.4121 78.6739C92.1309 78.0437 91.9994 77.3618 92.027 76.6773C91.9772 75.124 92.5753 73.6154 93.6901 72.4826C94.926 71.2942 96.5205 70.5044 98.2503 70.2239V82.6771ZM108.531 101.235C107.365 102.376 105.847 103.131 104.199 103.389V91.8426C105.774 92.2459 107.248 92.9489 108.531 93.9094C109.017 94.3059 109.404 94.8019 109.662 95.3605C109.92 95.9191 110.042 96.5261 110.02 97.1361C110.084 98.6328 109.552 100.097 108.531 101.235Z" fill="#4068E5"/>
<path d="M9.30769 52.9986L0 48.6003C3.8176 53.915 7.10714 62.2155 8.86826 68.8205C11.8501 62.6679 16.6568 55.1398 21.4148 50.6429L11.5776 53.1675C17.6392 23.5319 40.4386 2.25641 66.5471 2.25641V0C39.2761 0 15.4968 22.1665 9.30769 52.9986Z" fill="#272727"/>
<path d="M190.692 123.001L200 127.4C196.182 122.085 192.893 113.785 191.132 107.179C188.15 113.332 183.343 120.86 178.585 125.357L188.422 122.833C182.361 152.468 159.561 173.744 133.453 173.744V176C160.724 176 184.503 153.833 190.692 123.001Z" fill="#272727"/>
</svg>
