<svg width="190" height="185" viewBox="0 0 190 185" fill="none" xmlns="http://www.w3.org/2000/svg">
<g clip-path="url(#clip0_103_9)">
<path d="M120.62 41.606H69.4232C68.2565 41.6074 67.138 42.0703 66.313 42.8932C65.4881 43.7162 65.024 44.8318 65.0225 45.9956V159.496L64.4358 159.675L51.8764 163.511C51.2812 163.693 50.6383 163.631 50.0888 163.339C49.5393 163.048 49.1282 162.551 48.9457 161.958L11.5873 40.2335C11.4055 39.6398 11.4674 38.9983 11.7595 38.4501C12.0517 37.9019 12.55 37.4919 13.1451 37.31L32.4991 31.3987L88.607 14.2675L107.961 8.35612C108.255 8.2657 108.565 8.2341 108.872 8.26314C109.178 8.29217 109.476 8.38127 109.749 8.52534C110.021 8.6694 110.262 8.86559 110.458 9.1027C110.654 9.3398 110.802 9.61315 110.892 9.90712L120.441 41.0207L120.62 41.606Z" fill="#F1F3F9"/>
<path d="M131.792 41.0209L120.283 3.5219C120.091 2.89709 119.778 2.31605 119.361 1.81197C118.945 1.30789 118.433 0.890648 117.854 0.584094C117.276 0.277541 116.643 0.0876763 115.991 0.0253588C115.339 -0.0369587 114.681 0.0294914 114.054 0.220905L86.8439 8.52898L30.739 25.6631L3.5285 33.9741C2.26445 34.3613 1.20603 35.2329 0.585588 36.3977C-0.0348585 37.5625 -0.16665 38.9253 0.219147 40.1869L39.5548 168.343C39.8682 169.362 40.5006 170.253 41.3592 170.887C42.2177 171.52 43.2572 171.863 44.3252 171.864C44.8195 171.864 45.311 171.79 45.7832 171.644L64.4359 165.949L65.0227 165.768V165.156L64.4359 165.335L45.6101 171.085C44.4944 171.424 43.2893 171.308 42.2591 170.763C41.229 170.217 40.458 169.286 40.1152 168.173L0.782547 40.0142C0.612709 39.4632 0.553516 38.8841 0.608355 38.3102C0.663195 37.7363 0.830984 37.1788 1.10213 36.6696C1.37327 36.1605 1.74244 35.7097 2.18848 35.3431C2.63453 34.9765 3.14869 34.7012 3.70154 34.5331L30.912 26.2221L87.017 9.09086L114.228 0.779855C114.647 0.652205 115.083 0.587119 115.521 0.586711C116.462 0.588818 117.378 0.891396 118.134 1.45013C118.89 2.00886 119.446 2.79438 119.722 3.69163L131.179 41.0209L131.361 41.6062H131.971L131.792 41.0209Z" fill="#272727"/>
<path d="M35.9914 37.4057C35.426 37.4053 34.8755 37.2242 34.4209 36.8888C33.9662 36.5535 33.6312 36.0817 33.4651 35.5425L29.6863 23.2306C29.5848 22.8999 29.5495 22.5525 29.5826 22.2082C29.6157 21.8639 29.7164 21.5294 29.8791 21.224C30.0418 20.9185 30.2632 20.648 30.5307 20.4279C30.7982 20.2078 31.1065 20.0425 31.4381 19.9413L83.0541 4.17851C83.7237 3.97469 84.447 4.04421 85.0653 4.37179C85.6835 4.69937 86.1463 5.25826 86.3519 5.92578L90.1306 18.2379C90.3348 18.9058 90.2651 19.6272 89.9367 20.2439C89.6083 20.8606 89.0481 21.3222 88.379 21.5273L36.7628 37.2901C36.5129 37.3666 36.2529 37.4056 35.9914 37.4057Z" fill="#4068E5"/>
<path d="M55.7862 13.1556C59.0267 13.1556 61.6537 10.5352 61.6537 7.30277C61.6537 4.07035 59.0267 1.44995 55.7862 1.44995C52.5457 1.44995 49.9187 4.07035 49.9187 7.30277C49.9187 10.5352 52.5457 13.1556 55.7862 13.1556Z" fill="#4068E5"/>
<path d="M55.7863 11.0091C57.8383 11.0091 59.5018 9.34974 59.5018 7.30287C59.5018 5.256 57.8383 3.59668 55.7863 3.59668C53.7343 3.59668 52.0708 5.256 52.0708 7.30287C52.0708 9.34974 53.7343 11.0091 55.7863 11.0091Z" fill="white"/>
<path d="M176.798 170.368H77.6377C76.9766 170.367 76.3428 170.105 75.8753 169.639C75.4078 169.172 75.1448 168.54 75.144 167.881V49.361C75.1448 48.7015 75.4077 48.0692 75.8752 47.6029C76.3427 47.1366 76.9766 46.8743 77.6377 46.8735H176.798C177.459 46.8743 178.093 47.1366 178.561 47.6029C179.028 48.0693 179.291 48.7015 179.292 49.361V167.881C179.291 168.54 179.028 169.172 178.561 169.639C178.093 170.105 177.459 170.367 176.798 170.368Z" fill="#E8E9EE"/>
<path d="M131.179 41.0205H69.4232C68.101 41.0224 66.8335 41.5471 65.8986 42.4797C64.9637 43.4123 64.4377 44.6766 64.4358 45.9954V165.334L65.0225 165.156V45.9954C65.024 44.8316 65.4881 43.7159 66.313 42.893C67.138 42.0701 68.2565 41.6072 69.4232 41.6058H131.36L131.179 41.0205ZM185.013 41.0205H69.4232C68.101 41.0224 66.8335 41.5471 65.8986 42.4797C64.9637 43.4123 64.4377 44.6766 64.4358 45.9954V180.025C64.4377 181.344 64.9637 182.608 65.8986 183.541C66.8335 184.473 68.101 184.998 69.4232 185H185.013C186.335 184.998 187.602 184.473 188.537 183.541C189.472 182.608 189.998 181.344 190 180.025V45.9954C189.998 44.6766 189.472 43.4123 188.537 42.4797C187.602 41.5471 186.335 41.0224 185.013 41.0205ZM189.413 180.025C189.412 181.189 188.948 182.304 188.123 183.127C187.298 183.95 186.179 184.413 185.013 184.415H69.4232C68.2565 184.413 67.138 183.95 66.313 183.127C65.4881 182.304 65.024 181.189 65.0225 180.025V45.9954C65.024 44.8316 65.4881 43.7159 66.313 42.893C67.138 42.0701 68.2565 41.6072 69.4232 41.6058H185.013C186.179 41.6072 187.298 42.0701 188.123 42.893C188.948 43.7159 189.412 44.8316 189.413 45.9954V180.025Z" fill="#272727"/>
<path d="M154.208 53.8969H100.228C99.5275 53.8961 98.8564 53.6184 98.3614 53.1246C97.8664 52.6309 97.5879 51.9614 97.5872 51.2631V38.3869C97.5879 37.6887 97.8664 37.0192 98.3614 36.5255C98.8564 36.0317 99.5275 35.754 100.228 35.7532H154.208C154.908 35.754 155.58 36.0317 156.075 36.5255C156.57 37.0192 156.848 37.6887 156.849 38.3869V51.2631C156.848 51.9614 156.57 52.6309 156.075 53.1246C155.58 53.6184 154.908 53.8961 154.208 53.8969Z" fill="#4068E5"/>
<path d="M127.218 36.6309C130.458 36.6309 133.085 34.0105 133.085 30.7781C133.085 27.5457 130.458 24.9253 127.218 24.9253C123.977 24.9253 121.35 27.5457 121.35 30.7781C121.35 34.0105 123.977 36.6309 127.218 36.6309Z" fill="#4068E5"/>
<path d="M127.218 34.3432C129.192 34.3432 130.792 32.7471 130.792 30.7783C130.792 28.8094 129.192 27.2134 127.218 27.2134C125.244 27.2134 123.644 28.8094 123.644 30.7783C123.644 32.7471 125.244 34.3432 127.218 34.3432Z" fill="white"/>
</g>
<defs>
<clipPath id="clip0_103_9">
<rect width="190" height="185" fill="white"/>
</clipPath>
</defs>
</svg>
