<svg width="334" height="312" viewBox="0 0 334 312" fill="none" xmlns="http://www.w3.org/2000/svg">
<g clip-path="url(#clip0_59_383)">
<path d="M113.064 140.011C99.2179 140.011 85.683 135.905 74.1707 128.213C62.6583 120.521 53.6855 109.587 48.387 96.7955C43.0884 84.0037 41.7021 69.9279 44.4033 56.3482C47.1045 42.7684 53.7718 30.2946 63.5623 20.5042C73.3527 10.7137 85.8265 4.04635 99.4063 1.34517C112.986 -1.35601 127.062 0.0303343 139.854 5.32889C152.645 10.6274 163.579 19.6002 171.271 31.1126C178.963 42.6249 183.069 56.1598 183.069 70.0055C183.048 88.5657 175.666 106.36 162.542 119.484C149.418 132.608 131.624 139.99 113.064 140.011ZM113.064 1.10248C99.4359 1.10248 86.1142 5.14358 74.7832 12.7147C63.4521 20.2859 54.6206 31.0471 49.4055 43.6375C44.1904 56.2279 42.8259 70.082 45.4845 83.4479C48.1432 96.8138 54.7056 109.091 64.3418 118.727C73.9781 128.364 86.2554 134.926 99.6213 137.585C112.987 140.243 126.841 138.879 139.432 133.664C152.022 128.449 162.783 119.617 170.354 108.286C177.926 96.955 181.967 83.6333 181.967 70.0055C181.967 51.7313 174.707 34.2056 161.785 21.2837C148.864 8.36189 131.338 1.10248 113.064 1.10248Z" fill="white"/>
<path d="M69.1652 72.5152C67.2198 65.4225 82.9103 59.3404 87.0306 65.0521C87.6035 64.2401 89.7209 63.7468 90.6924 63.996C91.6433 64.3117 92.5221 64.8129 93.278 65.4706C94.3741 66.3126 95.5099 67.1844 96.1825 68.3951C96.8601 69.6007 96.9647 71.2448 96.053 72.291C95.3306 73.123 93.1983 73.661 92.1122 73.8802C91.355 74.0347 90.7173 74.1592 90.1693 74.2489C89.6715 73.5317 89.4422 72.6622 89.5216 71.7928C89.1527 72.0416 88.8435 72.369 88.6161 72.7514C88.3887 73.1338 88.2488 73.5619 88.2064 74.0048C88.1914 74.1891 94.3292 96.7725 94.3292 96.7725C93.5917 97.1922 92.816 97.5409 92.0126 97.8137C90.4231 95.3845 89.2057 92.7313 88.4006 89.9422C88.2156 91.8072 88.239 93.6871 88.4704 95.5469C88.5935 96.5898 88.7697 97.6258 88.9985 98.6507C81.7048 100.225 70.7345 99.7069 65.9617 93.0111L65.9593 92.9279C65.9556 92.6636 65.8601 92.4088 65.6892 92.2072C65.5183 92.0056 65.2826 91.8696 65.0225 91.8227C64.7623 91.7757 64.494 91.8207 64.2634 91.9498C64.0327 92.079 63.8542 92.2843 63.7583 92.5306C63.6425 92.826 63.5359 93.0817 63.4408 93.2851C62.0509 88.313 63.8494 82.5588 69.1652 72.5152Z" fill="#1B1B1B"/>
<path d="M103.561 299.379L108.996 299.333L111.401 277.883L103.381 277.951L103.561 299.379Z" fill="#FFA7A2"/>
<path d="M119.904 306.031L111.224 300.144L111.191 296.255L109.325 296.38L103.539 296.779L102.121 296.874L101.092 310.618L105.168 310.581L105.863 306.728L107.755 310.562L118.559 310.471C119.077 310.467 119.58 310.297 119.995 309.987C120.409 309.676 120.714 309.241 120.864 308.746C121.014 308.25 121.002 307.719 120.829 307.231C120.656 306.743 120.332 306.322 119.904 306.031Z" fill="#1B1B1B"/>
<path d="M49.3738 297.26L54.7466 298.077L60.5234 277.28L52.5935 276.075L49.3738 297.26Z" fill="#FFA7A2"/>
<path d="M64.4544 306.42L56.8184 299.231L57.4027 295.386L55.54 295.213L49.7646 294.69L48.3492 294.558L45.1531 307.965L49.1842 308.575L50.4812 304.881L51.7408 308.966L62.4231 310.59C62.9351 310.668 63.4587 310.58 63.9172 310.339C64.3758 310.099 64.7455 309.718 64.9723 309.252C65.199 308.786 65.2711 308.26 65.178 307.751C65.0848 307.241 64.8313 306.775 64.4544 306.42Z" fill="#1B1B1B"/>
<path d="M101.062 149.522L116.47 177.118C116.47 177.118 115.827 233.875 117.875 235.98C119.923 238.085 121.777 239.973 119.923 239.956C118.069 239.939 115.825 244.451 115.825 244.451L111.99 287.096H102.32C102.32 287.096 95.5152 261.947 96.9656 247.606L85.5099 195.197C85.5099 195.197 77.2799 244.76 75.7967 246.243C74.3135 247.726 73.4188 247.716 74.9785 249.204C76.5383 250.693 74.9785 254.059 74.9785 254.059L58.7188 287.806L49.8992 286.693C49.8992 286.693 51.4282 259.144 56.7526 247.317V191.425C56.3515 196.217 75.1101 147.716 63.639 151.356C67.2681 150.204 101.062 149.522 101.062 149.522Z" fill="#1B1B1B"/>
<path d="M87.9658 96.9005L72.3023 93.5779L69.1922 99.838L58.7189 105.901C58.7189 105.901 65.4699 133.505 65.4314 137.387C65.3336 147.243 49.5629 169.338 61.4751 167.639C73.3872 165.939 75.8069 158.819 79.631 159.945C95.408 164.589 114.158 164.097 107.778 157.717C101.397 151.336 102.823 108.863 102.823 108.863L90.4649 103.023L87.9658 96.9005Z" fill="#AEB5F5"/>
<path d="M58.4225 197.144C59.0519 196.393 59.3636 195.427 59.2913 194.45C59.219 193.473 58.7683 192.563 58.0353 191.914C57.8843 191.784 57.7227 191.667 57.5523 191.564L60.1713 178.711L54.1169 175.087L52.4329 193.082C52.0603 193.822 51.9431 194.664 52.0994 195.477C52.2557 196.29 52.6769 197.029 53.2971 197.578C54.0159 198.201 54.953 198.514 55.9023 198.447C56.8516 198.379 57.7353 197.938 58.359 197.219C58.3805 197.194 58.4017 197.169 58.4225 197.144Z" fill="#FFA7A2"/>
<path d="M55.0785 137.003L55.5822 113.581C55.6138 112.109 55.9397 110.658 56.5408 109.313C57.1418 107.969 58.0059 106.758 59.0819 105.753C60.158 104.748 61.4244 103.968 62.8065 103.459C64.1887 102.951 65.6585 102.724 67.1296 102.793C71.9155 103.016 70.6403 104.929 71.9116 109.548C73.9773 117.057 74.7719 121.398 74.2733 122.449C74.1046 122.805 73.9267 123.146 73.7557 123.474C72.8745 125.164 72.238 126.385 73.8558 127.554C74.4957 127.978 75.1927 128.308 75.9256 128.534C76.6558 128.794 77.1836 128.981 77.2206 129.394C77.2563 129.794 76.8053 130.208 75.5561 130.923C72.2023 132.842 69.2939 144.315 69.2655 144.428L59.5331 185.254L51.78 184.869L55.0785 137.003Z" fill="#AEB5F5"/>
<path d="M152.635 169.003C151.665 168.865 150.788 168.354 150.189 167.579C149.59 166.804 149.318 165.826 149.429 164.852C149.455 164.655 149.497 164.46 149.555 164.27L139.02 156.455L141.104 149.714L154.379 161.979C155.15 162.281 155.8 162.829 156.227 163.539C156.654 164.248 156.834 165.079 156.739 165.902C156.68 166.369 156.53 166.821 156.297 167.23C156.064 167.64 155.753 168 155.381 168.289C155.009 168.578 154.583 168.791 154.129 168.916C153.675 169.041 153.2 169.075 152.733 169.016C152.7 169.012 152.667 169.008 152.635 169.003Z" fill="#FFA7A2"/>
<path d="M149.378 155.431L143.866 160.897L109.35 137.019C109.253 136.954 99.425 130.36 95.647 131.172C94.2401 131.475 93.6277 131.468 93.3872 131.147C93.1389 130.815 93.4064 130.323 93.7765 129.642C94.1704 128.983 94.4686 128.272 94.662 127.53C95.0846 125.579 93.7952 125.095 92.0108 124.427C91.6643 124.297 91.3041 124.162 90.9408 124.01C89.8676 123.561 87.5591 119.8 84.0798 112.832C81.9396 108.545 79.7133 107.974 83.1252 104.611C84.1741 103.577 85.4193 102.764 86.7874 102.219C88.1555 101.674 89.6189 101.408 91.0912 101.437C92.5636 101.466 94.0152 101.79 95.3606 102.389C96.706 102.988 97.9179 103.85 98.925 104.924L114.946 122.016L149.378 155.431Z" fill="#AEB5F5"/>
<path d="M81.3572 93.343C88.4149 93.343 94.1362 87.6217 94.1362 80.564C94.1362 73.5063 88.4149 67.7849 81.3572 67.7849C74.2995 67.7849 68.5781 73.5063 68.5781 80.564C68.5781 87.6217 74.2995 93.343 81.3572 93.343Z" fill="#FFA7A2"/>
<path d="M62.1903 73.5115C60.2449 66.4188 75.9354 60.3367 80.0557 66.0485C80.6287 65.2364 82.746 64.7432 83.7175 64.9923C84.6684 65.3081 85.5473 65.8093 86.3032 66.467C87.3992 67.3089 88.5351 68.1808 89.2077 69.3914C89.8852 70.597 89.9898 72.2411 89.0781 73.2873C88.3557 74.1193 86.2234 74.6574 85.1374 74.8766C84.3801 75.031 83.7424 75.1556 83.1944 75.2453C82.6966 74.5281 82.4673 73.6585 82.5467 72.7891C82.1779 73.038 81.8686 73.3653 81.6412 73.7478C81.4139 74.1302 81.2739 74.5582 81.2315 75.0011C81.2165 75.1855 87.3543 97.7688 87.3543 97.7688C86.6169 98.1886 85.8412 98.5372 85.0377 98.8101C83.4483 96.3809 82.2308 93.7277 81.4258 90.9385C81.2407 92.8036 81.2641 94.6834 81.4955 96.5433C81.6186 97.5862 81.7948 98.6221 82.0236 99.647C74.73 101.221 63.7596 100.703 58.9869 94.0075L58.9845 93.9243C58.9807 93.66 58.8852 93.4052 58.7143 93.2036C58.5434 93.002 58.3077 92.866 58.0476 92.8191C57.7875 92.7721 57.5192 92.8171 57.2885 92.9462C57.0579 93.0753 56.8794 93.2807 56.7835 93.527C56.6677 93.8224 56.5611 94.0781 56.466 94.2815C55.076 89.3094 56.8745 83.5552 62.1903 73.5115Z" fill="#1B1B1B"/>
<path d="M29.9088 301.609C29.6526 301.621 29.3989 301.554 29.1822 301.416C28.9655 301.279 28.7962 301.079 28.6973 300.842C28.5983 300.605 28.5745 300.344 28.629 300.093C28.6836 299.843 28.8139 299.615 29.0022 299.441L29.0879 299.1C29.0766 299.073 29.0653 299.046 29.0538 299.018C28.7957 298.409 28.3632 297.889 27.8106 297.524C27.258 297.16 26.61 296.966 25.9479 296.969C25.2859 296.971 24.6393 297.169 24.0894 297.538C23.5396 297.907 23.1109 298.43 22.8573 299.041C21.8439 301.482 20.5535 303.927 20.2358 306.508C20.0959 307.649 20.1549 308.806 20.4103 309.926C18.0299 304.734 16.7938 299.09 16.7859 293.378C16.7854 291.945 16.865 290.512 17.0244 289.088C17.1562 287.92 17.3389 286.761 17.5727 285.609C18.8486 279.363 21.5878 273.509 25.5655 268.527C27.4908 267.477 29.0477 265.861 30.0266 263.899C30.3812 263.193 30.6318 262.44 30.7707 261.663C30.5535 261.691 29.9518 258.384 30.1156 258.181C29.813 257.722 29.2713 257.493 28.9407 257.045C27.2968 254.816 25.0319 255.206 23.8495 258.234C21.3237 259.509 21.2992 261.623 22.849 263.657C23.8351 264.95 23.9705 266.701 24.8357 268.086C24.7467 268.2 24.6541 268.31 24.5651 268.424C22.938 270.516 21.5199 272.763 20.3311 275.132C20.6202 272.478 20.2752 269.793 19.3244 267.299C18.3607 264.974 16.5545 263.016 14.9639 261.007C14.5432 260.467 13.972 260.064 13.3223 259.849C12.6726 259.633 11.9736 259.615 11.3138 259.797C10.654 259.979 10.063 260.353 9.61535 260.871C9.16774 261.388 8.88366 262.027 8.79905 262.706C8.79579 262.736 8.79262 262.766 8.78951 262.795C9.02576 262.928 9.25702 263.07 9.4833 263.22C9.76756 263.409 9.98782 263.681 10.1152 263.998C10.2426 264.315 10.2712 264.664 10.1973 264.997C10.1233 265.331 9.95028 265.635 9.70081 265.869C9.45134 266.102 9.13708 266.255 8.7992 266.307L8.7646 266.313C8.84876 267.164 8.99753 268.008 9.20962 268.837C7.16911 276.728 11.5744 279.602 17.8646 279.731C18.0035 279.803 18.1388 279.874 18.2777 279.941C17.0833 283.326 16.3341 286.852 16.0489 290.43C15.8875 292.541 15.897 294.661 16.0774 296.771L16.0667 296.696C15.611 294.351 14.3597 292.234 12.5242 290.704C9.79808 288.465 5.94656 287.64 3.00554 285.84C2.69298 285.639 2.32954 285.532 1.9581 285.531C1.58666 285.53 1.22271 285.636 0.909175 285.835C0.595636 286.034 0.345597 286.319 0.188536 286.655C0.0314744 286.992 -0.0260588 287.366 0.0227375 287.735L0.0347653 287.813C0.473177 287.992 0.900044 288.197 1.31287 288.429C1.54913 288.562 1.78039 288.704 2.00666 288.854C2.29092 289.043 2.51118 289.315 2.63858 289.632C2.76598 289.949 2.79457 290.298 2.72062 290.631C2.64667 290.965 2.47364 291.269 2.22417 291.503C1.9747 291.736 1.66042 291.889 1.32254 291.941L1.28792 291.947C1.26301 291.95 1.24161 291.954 1.21675 291.957C1.96585 293.746 3.01724 295.392 4.32486 296.824C5.60074 303.713 11.0807 304.367 16.9425 302.361H16.9461C17.5892 305.155 18.5211 307.876 19.7267 310.478H29.6598C29.6955 310.368 29.7275 310.254 29.7596 310.143C28.8401 310.201 27.9171 310.146 27.011 309.98C27.748 309.075 28.485 308.164 29.2219 307.26C29.2384 307.243 29.2539 307.225 29.2683 307.206C29.6421 306.743 30.0195 306.284 30.3933 305.821L30.3935 305.821C30.4134 304.402 30.2503 302.986 29.9088 301.609Z" fill="white"/>
<path d="M0.367923 310.703C0.367666 310.789 0.384453 310.874 0.417329 310.954C0.450206 311.034 0.498526 311.106 0.559492 311.167C0.620459 311.228 0.692872 311.277 0.772577 311.309C0.852282 311.342 0.937698 311.359 1.02392 311.359H140.644C140.818 311.359 140.984 311.29 141.107 311.167C141.23 311.044 141.3 310.877 141.3 310.703C141.3 310.529 141.23 310.362 141.107 310.239C140.984 310.116 140.818 310.047 140.644 310.047H1.02392C0.937699 310.047 0.852281 310.063 0.772577 310.096C0.692873 310.129 0.620458 310.177 0.559492 310.238C0.498526 310.299 0.450207 310.372 0.417329 310.451C0.384452 310.531 0.367669 310.617 0.367923 310.703Z" fill="#AEB5F5"/>
<path d="M305.457 31.4861H164.607C162.935 31.4861 161.279 31.8154 159.735 32.4552C158.19 33.0949 156.787 34.0327 155.605 35.2149C154.422 36.397 153.485 37.8005 152.845 39.345C152.205 40.8896 151.876 42.5451 151.876 44.2169V256.884C151.876 260.261 153.217 263.499 155.605 265.886C157.992 268.274 161.23 269.615 164.607 269.615H305.457C308.834 269.615 312.072 268.274 314.459 265.886C316.847 263.499 318.188 260.261 318.188 256.884C336.873 184.611 337.447 113.679 318.188 44.2169C318.188 40.8405 316.847 37.6024 314.459 35.2149C312.072 32.8274 308.834 31.4861 305.457 31.4861ZM168.885 240.15C168.885 240.697 168.668 241.221 168.281 241.608C167.895 241.994 167.371 242.211 166.824 242.211H161.496C160.95 242.211 160.426 241.994 160.039 241.608C159.653 241.221 159.435 240.697 159.435 240.15V234.823C159.435 234.276 159.653 233.752 160.039 233.365C160.426 232.979 160.95 232.762 161.496 232.762H166.824C167.371 232.762 167.895 232.979 168.281 233.365C168.668 233.752 168.885 234.276 168.885 234.823V240.15ZM168.885 219.125C168.885 219.672 168.668 220.196 168.281 220.582C167.895 220.969 167.371 221.186 166.824 221.186H161.496C160.95 221.186 160.426 220.969 160.039 220.582C159.653 220.196 159.435 219.672 159.435 219.125V213.798C159.435 213.527 159.489 213.259 159.592 213.009C159.696 212.759 159.848 212.532 160.039 212.34C160.23 212.149 160.458 211.997 160.708 211.893C160.958 211.79 161.226 211.737 161.496 211.737H166.824C167.095 211.737 167.363 211.79 167.613 211.893C167.863 211.997 168.09 212.149 168.281 212.34C168.473 212.532 168.624 212.759 168.728 213.009C168.832 213.259 168.885 213.527 168.885 213.798V219.125ZM168.885 198.1C168.885 198.646 168.668 199.171 168.281 199.557C167.895 199.944 167.371 200.161 166.824 200.161H161.496C160.95 200.161 160.426 199.944 160.039 199.557C159.653 199.171 159.435 198.646 159.435 198.1V192.772C159.435 192.226 159.653 191.701 160.039 191.315C160.426 190.928 160.95 190.711 161.496 190.711H166.824C167.371 190.711 167.895 190.928 168.281 191.315C168.668 191.701 168.885 192.226 168.885 192.772V198.1ZM168.885 177.075C168.885 177.621 168.668 178.145 168.281 178.532C167.895 178.918 167.371 179.136 166.824 179.136H161.496C160.95 179.136 160.426 178.918 160.039 178.532C159.653 178.145 159.435 177.621 159.435 177.075V171.747C159.435 171.2 159.653 170.676 160.039 170.29C160.426 169.903 160.95 169.686 161.496 169.686H166.824C167.371 169.686 167.895 169.903 168.281 170.29C168.668 170.676 168.885 171.2 168.885 171.747V177.075ZM168.885 156.049C168.885 156.596 168.668 157.12 168.281 157.507C167.895 157.893 167.371 158.11 166.824 158.11H161.496C160.95 158.11 160.426 157.893 160.039 157.507C159.653 157.12 159.435 156.596 159.435 156.049V150.722C159.435 150.175 159.653 149.651 160.039 149.264C160.426 148.878 160.95 148.661 161.496 148.661H166.824C167.371 148.661 167.895 148.878 168.281 149.264C168.668 149.651 168.885 150.175 168.885 150.722V156.049ZM168.885 135.024C168.885 135.571 168.668 136.095 168.281 136.481C167.895 136.868 167.371 137.085 166.824 137.085H161.496C160.95 137.085 160.426 136.868 160.039 136.481C159.653 136.095 159.435 135.571 159.435 135.024V129.696C159.435 129.15 159.653 128.626 160.039 128.239C160.426 127.853 160.95 127.635 161.496 127.635H166.824C167.371 127.635 167.895 127.853 168.281 128.239C168.668 128.626 168.885 129.15 168.885 129.696V135.024ZM168.885 113.999C168.885 114.545 168.668 115.07 168.281 115.456C167.895 115.843 167.371 116.06 166.824 116.06H161.496C160.95 116.06 160.426 115.843 160.039 115.456C159.653 115.07 159.435 114.545 159.435 113.999V108.671C159.435 108.125 159.653 107.6 160.039 107.214C160.426 106.827 160.95 106.61 161.496 106.61H166.824C167.371 106.61 167.895 106.827 168.281 107.214C168.668 107.6 168.885 108.125 168.885 108.671V113.999ZM168.885 92.9734C168.885 93.52 168.668 94.0442 168.281 94.4307C167.895 94.8173 167.371 95.0344 166.824 95.0344H161.496C160.95 95.0344 160.426 94.8173 160.039 94.4307C159.653 94.0442 159.435 93.52 159.435 92.9734V87.6459C159.435 87.0993 159.653 86.575 160.039 86.1885C160.426 85.802 160.95 85.5849 161.496 85.5849H166.824C167.371 85.5849 167.895 85.802 168.281 86.1885C168.668 86.575 168.885 87.0993 168.885 87.6459V92.9734ZM168.885 71.9481C168.885 72.4947 168.668 73.0189 168.281 73.4055C167.895 73.792 167.371 74.0091 166.824 74.0091H161.496C160.95 74.0091 160.426 73.792 160.039 73.4055C159.653 73.0189 159.435 72.4947 159.435 71.9481V66.6206C159.435 66.074 159.653 65.5497 160.039 65.1632C160.426 64.7767 160.95 64.5596 161.496 64.5596H166.824C167.371 64.5596 167.895 64.7767 168.281 65.1632C168.668 65.5497 168.885 66.074 168.885 66.6206V71.9481Z" fill="white"/>
<path d="M167.683 42.8257H160.638C159.974 42.8257 159.436 43.364 159.436 44.028V51.073C159.436 51.737 159.974 52.2752 160.638 52.2752H167.683C168.347 52.2752 168.885 51.737 168.885 51.073V44.028C168.885 43.364 168.347 42.8257 167.683 42.8257Z" fill="#AEB5F5"/>
<path d="M290.785 69.8356H187.918C187.772 69.8356 187.632 69.7775 187.528 69.6742C187.425 69.5708 187.367 69.4306 187.367 69.2844C187.367 69.1382 187.425 68.998 187.528 68.8946C187.632 68.7912 187.772 68.7332 187.918 68.7332H290.785C290.931 68.7332 291.071 68.7912 291.174 68.8946C291.278 68.998 291.336 69.1382 291.336 69.2844C291.336 69.4306 291.278 69.5708 291.174 69.6742C291.071 69.7775 290.931 69.8356 290.785 69.8356Z" fill="#AEB5F5"/>
<path d="M290.784 49.0465H261.491C261.344 49.0465 261.204 48.9885 261.101 48.8851C260.998 48.7817 260.939 48.6415 260.939 48.4953C260.939 48.3491 260.998 48.2089 261.101 48.1055C261.204 48.0022 261.344 47.9441 261.491 47.9441H290.784C290.931 47.9441 291.071 48.0022 291.174 48.1055C291.278 48.2089 291.336 48.3491 291.336 48.4953C291.336 48.6415 291.278 48.7817 291.174 48.8851C291.071 48.9885 290.931 49.0465 290.784 49.0465Z" fill="#AEB5F5"/>
<path d="M290.785 90.6247H187.918C187.772 90.6247 187.632 90.5666 187.528 90.4632C187.425 90.3598 187.367 90.2196 187.367 90.0734C187.367 89.9272 187.425 89.787 187.528 89.6837C187.632 89.5803 187.772 89.5222 187.918 89.5222H290.785C290.931 89.5222 291.071 89.5803 291.174 89.6837C291.278 89.787 291.336 89.9272 291.336 90.0734C291.336 90.2196 291.278 90.3598 291.174 90.4632C291.071 90.5666 290.931 90.6247 290.785 90.6247Z" fill="#AEB5F5"/>
<path d="M290.785 111.414H187.918C187.772 111.414 187.632 111.356 187.528 111.252C187.425 111.149 187.367 111.009 187.367 110.863C187.367 110.716 187.425 110.576 187.528 110.473C187.632 110.369 187.772 110.311 187.918 110.311H290.785C290.931 110.311 291.071 110.369 291.174 110.473C291.278 110.576 291.336 110.716 291.336 110.863C291.336 111.009 291.278 111.149 291.174 111.252C291.071 111.356 290.931 111.414 290.785 111.414Z" fill="#AEB5F5"/>
<path d="M290.785 132.203H187.918C187.772 132.203 187.632 132.145 187.528 132.041C187.425 131.938 187.367 131.798 187.367 131.652C187.367 131.505 187.425 131.365 187.528 131.262C187.632 131.158 187.772 131.1 187.918 131.1H290.785C290.931 131.1 291.071 131.158 291.174 131.262C291.278 131.365 291.336 131.505 291.336 131.652C291.336 131.798 291.278 131.938 291.174 132.041C291.071 132.145 290.931 132.203 290.785 132.203Z" fill="#AEB5F5"/>
<path d="M290.785 152.992H187.918C187.772 152.992 187.632 152.934 187.528 152.83C187.425 152.727 187.367 152.587 187.367 152.441C187.367 152.294 187.425 152.154 187.528 152.051C187.632 151.947 187.772 151.889 187.918 151.889H290.785C290.931 151.889 291.071 151.947 291.174 152.051C291.278 152.154 291.336 152.294 291.336 152.441C291.336 152.587 291.278 152.727 291.174 152.83C291.071 152.934 290.931 152.992 290.785 152.992Z" fill="#AEB5F5"/>
<path d="M290.785 173.781H187.918C187.772 173.781 187.632 173.723 187.528 173.619C187.425 173.516 187.367 173.376 187.367 173.229C187.367 173.083 187.425 172.943 187.528 172.84C187.632 172.736 187.772 172.678 187.918 172.678H290.785C290.931 172.678 291.071 172.736 291.174 172.84C291.278 172.943 291.336 173.083 291.336 173.229C291.336 173.376 291.278 173.516 291.174 173.619C291.071 173.723 290.931 173.781 290.785 173.781Z" fill="#AEB5F5"/>
<path d="M290.785 194.57H187.918C187.772 194.57 187.632 194.512 187.528 194.409C187.425 194.305 187.367 194.165 187.367 194.019C187.367 193.873 187.425 193.732 187.528 193.629C187.632 193.526 187.772 193.468 187.918 193.468H290.785C290.931 193.468 291.071 193.526 291.174 193.629C291.278 193.732 291.336 193.873 291.336 194.019C291.336 194.165 291.278 194.305 291.174 194.409C291.071 194.512 290.931 194.57 290.785 194.57Z" fill="#AEB5F5"/>
<path d="M290.785 215.359H187.918C187.772 215.359 187.632 215.301 187.528 215.197C187.425 215.094 187.367 214.954 187.367 214.808C187.367 214.661 187.425 214.521 187.528 214.418C187.632 214.314 187.772 214.256 187.918 214.256H290.785C290.931 214.256 291.071 214.314 291.174 214.418C291.278 214.521 291.336 214.661 291.336 214.808C291.336 214.954 291.278 215.094 291.174 215.197C291.071 215.301 290.931 215.359 290.785 215.359Z" fill="#AEB5F5"/>
<path d="M290.785 236.148H187.918C187.772 236.148 187.632 236.09 187.528 235.987C187.425 235.883 187.367 235.743 187.367 235.597C187.367 235.451 187.425 235.31 187.528 235.207C187.632 235.104 187.772 235.046 187.918 235.046H290.785C290.931 235.046 291.071 235.104 291.174 235.207C291.278 235.31 291.336 235.451 291.336 235.597C291.336 235.743 291.278 235.883 291.174 235.987C291.071 236.09 290.931 236.148 290.785 236.148Z" fill="#AEB5F5"/>
<path d="M275.534 64.9824H204.591C204.315 64.9828 204.041 64.9288 203.786 64.8234C203.531 64.718 203.298 64.5633 203.103 64.3681C202.908 64.173 202.752 63.9412 202.647 63.686C202.541 63.4309 202.486 63.1573 202.486 62.8811C202.486 62.6049 202.541 62.3313 202.647 62.0762C202.752 61.821 202.908 61.5892 203.103 61.394C203.298 61.1989 203.531 61.0442 203.786 60.9388C204.041 60.8334 204.315 60.7793 204.591 60.7798H275.534C276.091 60.7807 276.625 61.0025 277.018 61.3965C277.411 61.7904 277.632 62.3244 277.632 62.8811C277.632 63.4378 277.411 63.9718 277.018 64.3657C276.625 64.7597 276.091 64.9815 275.534 64.9824Z" fill="#AEB5F5"/>
<path d="M275.534 85.7714H204.591C204.034 85.7714 203.499 85.5501 203.105 85.156C202.711 84.7619 202.49 84.2274 202.49 83.6701C202.49 83.1128 202.711 82.5784 203.105 82.1843C203.499 81.7902 204.034 81.5688 204.591 81.5688H275.534C276.092 81.5688 276.626 81.7902 277.02 82.1843C277.414 82.5784 277.636 83.1128 277.636 83.6701C277.636 84.2274 277.414 84.7619 277.02 85.156C276.626 85.5501 276.092 85.7714 275.534 85.7714Z" fill="#AEB5F5"/>
<path d="M275.534 106.56H204.591C204.315 106.561 204.041 106.507 203.786 106.402C203.531 106.296 203.298 106.141 203.103 105.946C202.908 105.751 202.752 105.519 202.647 105.264C202.541 105.009 202.486 104.735 202.486 104.459C202.486 104.183 202.541 103.909 202.647 103.654C202.752 103.399 202.908 103.167 203.103 102.972C203.298 102.777 203.531 102.622 203.786 102.517C204.041 102.411 204.315 102.357 204.591 102.358H275.534C276.091 102.359 276.625 102.581 277.018 102.975C277.411 103.369 277.632 103.902 277.632 104.459C277.632 105.016 277.411 105.55 277.018 105.944C276.625 106.338 276.091 106.56 275.534 106.56Z" fill="#AEB5F5"/>
<path d="M275.534 127.35H204.591C204.034 127.35 203.499 127.128 203.105 126.734C202.711 126.34 202.49 125.806 202.49 125.248C202.49 124.691 202.711 124.156 203.105 123.762C203.499 123.368 204.034 123.147 204.591 123.147H275.534C276.092 123.147 276.626 123.368 277.02 123.762C277.414 124.156 277.636 124.691 277.636 125.248C277.636 125.806 277.414 126.34 277.02 126.734C276.626 127.128 276.092 127.35 275.534 127.35Z" fill="#AEB5F5"/>
<path d="M275.534 148.139H204.591C204.315 148.139 204.041 148.085 203.786 147.98C203.531 147.874 203.298 147.72 203.103 147.524C202.908 147.329 202.752 147.097 202.647 146.842C202.541 146.587 202.486 146.314 202.486 146.037C202.486 145.761 202.541 145.488 202.647 145.232C202.752 144.977 202.908 144.745 203.103 144.55C203.298 144.355 203.531 144.2 203.786 144.095C204.041 143.99 204.315 143.936 204.591 143.936H275.534C276.091 143.937 276.625 144.159 277.018 144.553C277.411 144.947 277.632 145.481 277.632 146.037C277.632 146.594 277.411 147.128 277.018 147.522C276.625 147.916 276.091 148.138 275.534 148.139Z" fill="#AEB5F5"/>
<path d="M275.534 168.928H204.591C204.315 168.928 204.041 168.874 203.786 168.769C203.531 168.663 203.298 168.509 203.103 168.313C202.908 168.118 202.752 167.886 202.647 167.631C202.541 167.376 202.486 167.103 202.486 166.826C202.486 166.55 202.541 166.277 202.647 166.021C202.752 165.766 202.908 165.535 203.103 165.339C203.298 165.144 203.531 164.989 203.786 164.884C204.041 164.779 204.315 164.725 204.591 164.725H275.534C276.091 164.726 276.625 164.948 277.018 165.342C277.411 165.736 277.632 166.27 277.632 166.826C277.632 167.383 277.411 167.917 277.018 168.311C276.625 168.705 276.091 168.927 275.534 168.928Z" fill="#AEB5F5"/>
<path d="M275.534 189.717H204.591C204.034 189.717 203.499 189.495 203.105 189.101C202.711 188.707 202.49 188.173 202.49 187.615C202.49 187.058 202.711 186.524 203.105 186.13C203.499 185.736 204.034 185.514 204.591 185.514H275.534C276.092 185.514 276.626 185.736 277.02 186.13C277.414 186.524 277.636 187.058 277.636 187.615C277.636 188.173 277.414 188.707 277.02 189.101C276.626 189.495 276.092 189.717 275.534 189.717Z" fill="#AEB5F5"/>
<path d="M275.534 210.506H204.591C204.315 210.506 204.041 210.452 203.786 210.347C203.531 210.241 203.298 210.086 203.103 209.891C202.908 209.696 202.752 209.464 202.647 209.209C202.541 208.954 202.486 208.68 202.486 208.404C202.486 208.128 202.541 207.855 202.647 207.599C202.752 207.344 202.908 207.112 203.103 206.917C203.298 206.722 203.531 206.567 203.786 206.462C204.041 206.357 204.315 206.303 204.591 206.303H275.534C276.091 206.304 276.625 206.526 277.018 206.92C277.411 207.314 277.632 207.848 277.632 208.404C277.632 208.961 277.411 209.495 277.018 209.889C276.625 210.283 276.091 210.505 275.534 210.506Z" fill="#AEB5F5"/>
<path d="M275.534 231.295H204.591C204.315 231.295 204.042 231.241 203.787 231.135C203.532 231.029 203.3 230.875 203.105 230.679C202.91 230.484 202.755 230.253 202.65 229.998C202.544 229.743 202.49 229.47 202.49 229.194C202.49 228.918 202.544 228.644 202.65 228.389C202.755 228.135 202.91 227.903 203.105 227.708C203.3 227.513 203.532 227.358 203.787 227.252C204.042 227.147 204.315 227.092 204.591 227.092H275.534C276.092 227.092 276.626 227.314 277.02 227.708C277.414 228.102 277.636 228.636 277.636 229.194C277.636 229.751 277.414 230.285 277.02 230.679C276.626 231.074 276.092 231.295 275.534 231.295Z" fill="#AEB5F5"/>
<path d="M211.447 49.2556H193.088C192.941 49.2556 192.801 49.3137 192.698 49.4171C192.594 49.5204 192.536 49.6606 192.536 49.8068C192.536 49.953 192.594 50.0932 192.698 50.1966C192.801 50.3 192.941 50.3581 193.088 50.3581H201.716V68.3488C201.716 68.495 201.774 68.6352 201.878 68.7385C201.981 68.8419 202.121 68.9 202.267 68.9C202.414 68.9 202.554 68.8419 202.657 68.7385C202.76 68.6352 202.819 68.495 202.819 68.3488V58.9865C202.819 56.6981 203.728 54.5034 205.346 52.8853C206.964 51.2671 209.159 50.3581 211.447 50.3581C211.593 50.3581 211.733 50.3 211.837 50.1966C211.94 50.0932 211.998 49.953 211.998 49.8068C211.998 49.6606 211.94 49.5204 211.837 49.4171C211.733 49.3137 211.593 49.2556 211.447 49.2556Z" fill="#3F3D56"/>
<path d="M278.106 235.676C277.802 235.676 273.938 235.429 273.938 235.125L277.555 216.765C277.555 216.619 277.613 216.479 277.717 216.375C277.82 216.272 277.96 216.214 278.106 216.214C278.253 216.214 278.393 216.272 278.496 216.375C278.6 216.479 278.658 216.619 278.658 216.765V235.125C278.658 235.271 278.6 235.411 278.496 235.514C278.393 235.618 278.253 235.676 278.106 235.676Z" fill="#3F3D56"/>
<path d="M319.77 44.2169C319.77 40.8405 318.429 37.6024 316.041 35.2149C313.654 32.8274 310.416 31.4861 307.039 31.4861H164.554C170.315 31.4861 239.538 35.5568 283.639 40.695C290.991 41.5508 297.889 44.6956 303.357 49.6851C308.825 54.6746 312.586 61.2564 314.11 68.5001C327.075 130.188 324.707 193.012 308.195 256.884C308.195 260.261 306.853 263.499 304.466 265.886C302.078 268.274 298.84 269.615 295.464 269.615H307.039C310.416 269.615 313.654 268.274 316.041 265.886C318.429 263.499 319.77 260.261 319.77 256.884C338.455 184.611 339.029 113.679 319.77 44.2169Z" fill="#AEB5F5"/>
<path d="M314.397 263.333L313.329 263.058C332.178 190.149 332.185 118.715 313.349 50.7375C311.389 47.1831 308.568 44.177 305.145 41.9943C301.723 39.8116 297.808 38.522 293.758 38.2434L237.277 34.2409L237.355 33.1411L293.836 37.1437C298.08 37.4358 302.183 38.7903 305.767 41.0826C309.351 43.3749 312.301 46.5314 314.346 50.2619L314.394 50.3806C323.917 84.7116 328.711 120.182 328.643 155.809C328.572 190.865 323.779 227.042 314.397 263.333Z" fill="white"/>
</g>
<defs>
<clipPath id="clip0_59_383">
<rect width="334" height="311.359" fill="white"/>
</clipPath>
</defs>
</svg>
